<svg id="svg" version="1.1" xmlns="http://www.w3.org/2000/svg" xmlns:xlink="http://www.w3.org/1999/xlink" viewBox="64.02 81.62 255.78 255.75"><g id="svgg"><path id="path0" d="M185.297 104.406 C 167.391 107.373,158.859 131.745,163.137 167.705 C 163.458 170.404,163.673 172.752,163.614 172.923 C 163.555 173.095,161.833 171.708,159.787 169.843 C 144.038 155.481,131.607 152.757,123.268 161.841 C 111.565 174.591,121.993 193.878,151.225 213.548 C 158.077 218.159,161.015 218.418,163.332 214.618 C 165.328 211.345,164.103 208.830,158.792 205.299 C 134.895 189.408,123.344 172.737,133.042 168.135 C 138.754 165.425,152.982 176.410,167.198 194.508 C 170.804 199.099,171.749 199.823,174.126 199.822 C 178.863 199.818,180.656 196.218,178.727 190.585 C 173.363 174.925,171.710 142.624,175.578 129.037 C 179.752 114.370,191.421 110.302,197.850 121.272 C 204.917 133.333,206.041 169.667,200.312 200.886 C 199.054 207.745,199.334 207.153,197.042 207.784 C 157.582 218.634,134.014 242.620,132.979 272.985 C 132.725 280.433,134.088 282.666,138.645 282.268 C 142.365 281.943,143.542 280.025,143.894 273.712 C 144.606 260.949,149.314 250.198,158.118 241.232 C 161.104 238.191,164.313 235.398,164.537 235.645 C 164.908 236.053,190.337 288.789,190.220 288.905 C 189.532 289.584,179.553 290.344,171.302 290.344 C 161.467 290.346,159.684 290.133,156.359 288.559 C 150.826 285.942,145.809 290.418,148.327 295.725 C 150.325 299.934,161.435 302.220,176.271 301.474 C 248.166 297.859,309.603 235.908,268.231 208.745 C 258.476 202.340,239.784 200.542,216.554 203.774 C 210.183 204.661,210.755 204.921,211.373 201.417 C 215.600 177.424,216.164 148.457,212.734 131.474 C 208.769 111.837,198.944 102.145,185.297 104.406 M251.550 214.163 C 270.902 217.665,275.809 231.406,263.771 248.379 C 261.339 251.807,252.171 261.264,251.496 261.039 C 250.387 260.669,228.187 213.832,228.996 213.566 C 230.544 213.058,247.996 213.520,251.550 214.163 M229.483 241.772 C 236.559 256.368,242.306 268.347,242.255 268.392 C 240.771 269.694,227.188 277.262,226.883 276.956 C 226.595 276.669,198.760 219.242,198.760 218.936 C 198.760 218.401,213.714 215.050,215.572 215.168 C 216.594 215.233,216.907 215.830,229.483 241.772 M202.314 251.890 C 210.113 267.958,216.422 281.292,216.334 281.520 C 216.158 281.980,204.948 285.774,202.784 286.106 L 201.417 286.316 187.812 258.216 C 180.329 242.760,174.139 229.860,174.056 229.549 C 173.847 228.766,186.385 222.375,187.690 222.599 C 187.934 222.641,194.515 235.822,202.314 251.890 " stroke="none" fill="#3cac54" fill-rule="evenodd"/><path id="path1" d="M178.220 82.403 C 71.708 94.006,25.771 224.225,101.482 299.935 C 168.052 366.505,281.800 340.441,312.646 251.550 C 343.291 163.238,271.016 72.294,178.220 82.403 M194.154 104.592 C 213.162 109.052,220.278 147.226,211.871 199.632 C 211.006 205.022,210.719 204.530,214.372 203.904 C 236.676 200.082,258.341 202.007,268.523 208.715 C 307.865 234.634,253.932 293.204,183.348 301.213 C 169.904 302.738,154.830 301.261,150.291 297.972 C 144.010 293.422,149.131 284.923,156.152 288.245 C 160.280 290.197,168.034 290.900,177.679 290.197 C 183.527 289.771,189.394 289.023,189.759 288.658 C 190.010 288.408,164.683 235.978,164.307 235.968 C 164.162 235.964,162.769 237.084,161.212 238.456 C 150.264 248.103,143.844 262.118,143.844 276.372 C 143.844 280.072,141.688 282.374,138.224 282.374 C 132.778 282.374,131.411 277.796,133.349 266.049 C 137.784 239.163,159.329 218.819,194.413 208.388 C 199.504 206.875,198.938 207.707,200.354 199.646 C 205.305 171.451,204.743 137.647,199.102 124.358 C 193.366 110.842,181.039 112.741,176.095 127.901 C 171.830 140.976,173.458 174.773,179.145 191.251 C 182.069 199.722,174.348 203.499,168.586 196.417 C 162.746 189.240,160.678 186.884,156.069 182.153 C 142.316 168.040,133.001 164.282,130.168 171.702 C 127.669 178.244,139.086 191.770,157.721 204.341 C 165.080 209.306,166.281 212.106,162.622 215.766 C 159.809 218.579,157.852 218.221,151.027 213.645 C 123.509 195.195,112.724 177.077,121.431 163.922 C 129.291 152.047,144.040 154.487,160.629 170.409 C 163.471 173.137,163.753 173.325,163.556 172.365 C 161.293 161.361,161.629 138.887,164.220 128.006 C 168.375 110.552,180.185 101.315,194.154 104.592 M230.735 213.548 C 229.517 213.618,228.521 213.739,228.521 213.817 C 228.521 213.996,251.228 260.885,251.410 261.083 C 251.960 261.680,262.334 250.336,264.988 246.235 C 278.935 224.688,265.209 211.590,230.735 213.548 M211.515 215.933 C 205.106 217.223,199.492 218.630,199.261 219.004 C 198.996 219.432,226.744 276.705,227.217 276.705 C 227.850 276.705,237.958 271.006,241.602 268.595 C 242.159 268.227,216.655 215.031,215.948 215.085 C 215.750 215.100,213.756 215.482,211.515 215.933 M182.804 224.751 C 180.556 225.770,177.659 227.195,176.365 227.919 L 174.014 229.234 176.968 235.343 C 200.910 284.864,201.535 286.101,202.567 285.979 C 204.027 285.807,216.495 281.636,216.355 281.367 C 216.288 281.239,209.884 268.020,202.123 251.993 C 192.073 231.240,187.850 222.859,187.451 222.875 C 187.143 222.888,185.052 223.732,182.804 224.751 " stroke="none" fill="#ebebeb" fill-rule="evenodd"/><path id="path2" d="M162.050 149.867 C 162.050 152.303,162.106 153.299,162.176 152.081 C 162.245 150.864,162.245 148.871,162.176 147.653 C 162.106 146.435,162.050 147.431,162.050 149.867 M203.834 154.119 C 203.834 155.385,203.898 155.903,203.976 155.270 C 204.055 154.637,204.055 153.601,203.976 152.967 C 203.898 152.334,203.834 152.852,203.834 154.119 M173.340 155.004 C 173.344 155.784,173.416 156.061,173.501 155.620 C 173.586 155.180,173.583 154.542,173.494 154.203 C 173.405 153.864,173.336 154.225,173.340 155.004 M203.836 162.799 C 203.838 164.163,203.902 164.678,203.979 163.942 C 204.055 163.207,204.054 162.091,203.976 161.462 C 203.898 160.833,203.835 161.435,203.836 162.799 M214.785 168.291 C 214.785 168.973,214.858 169.252,214.948 168.911 C 215.037 168.570,215.037 168.012,214.948 167.671 C 214.858 167.329,214.785 167.609,214.785 168.291 M139.415 189.903 C 140.375 190.877,141.240 191.674,141.337 191.674 C 141.435 191.674,140.729 190.877,139.770 189.903 C 138.810 188.928,137.945 188.131,137.848 188.131 C 137.750 188.131,138.456 188.928,139.415 189.903 M236.587 202.205 C 237.224 202.284,238.181 202.283,238.713 202.202 C 239.246 202.121,238.725 202.056,237.555 202.058 C 236.386 202.060,235.951 202.127,236.587 202.205 M265.013 220.129 C 265.013 220.190,265.531 220.708,266.165 221.280 L 267.316 222.321 266.276 221.169 C 265.306 220.096,265.013 219.855,265.013 220.129 M158.525 240.655 L 157.484 241.807 158.636 240.766 C 159.709 239.796,159.950 239.504,159.677 239.504 C 159.616 239.504,159.097 240.022,158.525 240.655 M132.623 275.465 C 132.624 276.829,132.689 277.344,132.765 276.609 C 132.842 275.873,132.841 274.757,132.762 274.129 C 132.684 273.500,132.621 274.101,132.623 275.465 M167.139 301.756 C 167.578 301.840,168.295 301.840,168.733 301.756 C 169.172 301.671,168.813 301.602,167.936 301.602 C 167.059 301.602,166.701 301.671,167.139 301.756 M172.636 301.760 C 173.174 301.841,173.971 301.839,174.407 301.755 C 174.843 301.671,174.402 301.604,173.428 301.607 C 172.453 301.610,172.097 301.679,172.636 301.760 " stroke="none" fill="#84bc8c" fill-rule="evenodd"/><path id="path3" d="M188.401 104.059 C 188.842 104.144,189.479 104.141,189.818 104.052 C 190.157 103.963,189.796 103.894,189.017 103.898 C 188.237 103.902,187.960 103.975,188.401 104.059 M188.574 115.390 C 188.915 115.479,189.473 115.479,189.814 115.390 C 190.155 115.301,189.876 115.228,189.194 115.228 C 188.512 115.228,188.233 115.301,188.574 115.390 M161.995 144.553 C 161.995 145.235,162.068 145.514,162.157 145.173 C 162.247 144.832,162.247 144.274,162.157 143.933 C 162.068 143.592,161.995 143.871,161.995 144.553 M173.386 149.690 C 173.387 152.028,173.444 152.939,173.513 151.713 C 173.583 150.488,173.582 148.575,173.512 147.462 C 173.442 146.349,173.385 147.352,173.386 149.690 M162.003 155.359 C 162.006 156.138,162.079 156.415,162.164 155.975 C 162.249 155.534,162.245 154.896,162.157 154.557 C 162.068 154.219,161.999 154.579,162.003 155.359 M203.834 158.370 C 203.834 159.637,203.898 160.155,203.976 159.522 C 204.055 158.888,204.055 157.852,203.976 157.219 C 203.898 156.585,203.834 157.104,203.834 158.370 M215.164 158.370 C 215.164 159.442,215.230 159.880,215.311 159.345 C 215.393 158.809,215.393 157.932,215.311 157.396 C 215.230 156.860,215.164 157.298,215.164 158.370 M123.450 161.293 L 122.409 162.445 123.561 161.404 C 124.634 160.434,124.875 160.142,124.601 160.142 C 124.540 160.142,124.022 160.660,123.450 161.293 M154.827 180.868 C 156.083 182.135,157.189 183.171,157.287 183.171 C 157.384 183.171,156.437 182.135,155.182 180.868 C 153.926 179.601,152.819 178.565,152.722 178.565 C 152.625 178.565,153.572 179.601,154.827 180.868 M232.866 202.203 C 233.404 202.284,234.202 202.282,234.637 202.198 C 235.073 202.114,234.632 202.047,233.658 202.050 C 232.684 202.053,232.327 202.121,232.866 202.203 M240.306 202.203 C 240.845 202.284,241.642 202.282,242.078 202.198 C 242.513 202.114,242.073 202.047,241.098 202.050 C 240.124 202.053,239.767 202.121,240.306 202.203 M273.871 213.109 C 274.532 213.791,275.152 214.349,275.250 214.349 C 275.347 214.349,274.886 213.791,274.225 213.109 C 273.564 212.427,272.943 211.869,272.846 211.869 C 272.749 211.869,273.210 212.427,273.871 213.109 M150.736 232.507 L 149.336 234.012 150.841 232.612 C 152.242 231.309,152.510 231.001,152.242 231.001 C 152.184 231.001,151.506 231.678,150.736 232.507 M256.498 256.422 L 254.562 258.459 256.599 256.522 C 258.491 254.723,258.798 254.384,258.535 254.384 C 258.480 254.384,257.563 255.301,256.498 256.422 " stroke="none" fill="#aac9ad" fill-rule="evenodd"/><path id="path4" d="M131.621 198.051 C 132.778 199.221,133.804 200.177,133.902 200.177 C 133.999 200.177,133.132 199.221,131.975 198.051 C 130.818 196.882,129.792 195.926,129.694 195.926 C 129.597 195.926,130.464 196.882,131.621 198.051 M264.659 264.128 C 263.798 265.004,263.174 265.722,263.271 265.722 C 263.369 265.722,264.153 265.004,265.013 264.128 C 265.874 263.251,266.498 262.533,266.401 262.533 C 266.303 262.533,265.520 263.251,264.659 264.128 " stroke="none" fill="#94c49c" fill-rule="evenodd"/></g></svg>